<svg xmlns="http://www.w3.org/2000/svg" xmlns:xlink="http://www.w3.org/1999/xlink" width="192" zoomAndPan="magnify" viewBox="0 0 144 199.499995" height="266" preserveAspectRatio="xMidYMid meet" version="1.0"><defs><clipPath id="f834baf4ed"><path d="M 0.179688 84.21875 L 143.820312 84.21875 L 143.820312 198.679688 L 0.179688 198.679688 Z M 0.179688 84.21875 " clip-rule="nonzero"/></clipPath><clipPath id="bb71f64854"><path d="M 143.742188 108.144531 L 143.742188 174.753906 C 143.742188 187.96875 133.03125 198.679688 119.816406 198.679688 L 24.105469 198.679688 C 10.890625 198.679688 0.179688 187.96875 0.179688 174.753906 L 0.179688 108.144531 C 0.179688 94.929688 10.890625 84.21875 24.105469 84.21875 L 119.816406 84.21875 C 133.03125 84.21875 143.742188 94.929688 143.742188 108.144531 Z M 143.742188 108.144531 " clip-rule="nonzero"/></clipPath><clipPath id="527a725aea"><path d="M 0.179688 0.21875 L 143.820312 0.21875 L 143.820312 114.679688 L 0.179688 114.679688 Z M 0.179688 0.21875 " clip-rule="nonzero"/></clipPath><clipPath id="4e6b9af46b"><path d="M 143.742188 24.144531 L 143.742188 90.753906 C 143.742188 103.96875 133.03125 114.679688 119.816406 114.679688 L 24.105469 114.679688 C 10.890625 114.679688 0.179688 103.96875 0.179688 90.753906 L 0.179688 24.144531 C 0.179688 10.929688 10.890625 0.21875 24.105469 0.21875 L 119.816406 0.21875 C 133.03125 0.21875 143.742188 10.929688 143.742188 24.144531 Z M 143.742188 24.144531 " clip-rule="nonzero"/></clipPath><clipPath id="7db92382e5"><rect x="0" width="144" y="0" height="115"/></clipPath><clipPath id="62947a6a4e"><path d="M 19.574219 0 L 124.308594 0 L 124.308594 129.050781 L 19.574219 129.050781 Z M 19.574219 0 " clip-rule="nonzero"/></clipPath><clipPath id="1541617867"><path d="M 54.542969 3.027344 C 59.902344 1.199219 66.03125 0 72.027344 0 C 78.027344 0 83.796875 1.027344 89.117188 2.855469 C 89.230469 2.914062 89.34375 2.914062 89.457031 2.96875 C 109.433594 10.28125 124.144531 29.59375 124.425781 52.15625 L 124.425781 129.050781 L 19.574219 129.050781 L 19.574219 52.214844 C 19.855469 29.476562 34.34375 10.167969 54.542969 3.027344 Z M 54.542969 3.027344 " clip-rule="nonzero"/></clipPath><clipPath id="a9c835db4b"><path d="M 43.371094 117.550781 L 100.535156 117.550781 L 100.535156 168.457031 L 43.371094 168.457031 Z M 43.371094 117.550781 " clip-rule="nonzero"/></clipPath><clipPath id="9b35ff9008"><path d="M 68.289062 166.277344 L 44.15625 124.042969 C 43.386719 122.699219 43.394531 121.050781 44.167969 119.710938 C 44.945312 118.371094 46.378906 117.550781 47.925781 117.550781 L 96.074219 117.550781 C 97.621094 117.550781 99.050781 118.371094 99.828125 119.710938 C 100.605469 121.050781 100.613281 122.699219 99.84375 124.042969 L 75.710938 166.277344 C 74.949219 167.609375 73.535156 168.429688 72 168.429688 C 70.464844 168.429688 69.046875 167.609375 68.289062 166.277344 Z M 68.289062 166.277344 " clip-rule="nonzero"/></clipPath><clipPath id="fcbc81bf55"><path d="M 0.371094 0.550781 L 57.535156 0.550781 L 57.535156 51.457031 L 0.371094 51.457031 Z M 0.371094 0.550781 " clip-rule="nonzero"/></clipPath><clipPath id="9dd5a8c3e0"><path d="M 25.289062 49.277344 L 1.15625 7.042969 C 0.386719 5.699219 0.394531 4.050781 1.167969 2.710938 C 1.945312 1.371094 3.378906 0.550781 4.925781 0.550781 L 53.074219 0.550781 C 54.621094 0.550781 56.050781 1.371094 56.828125 2.710938 C 57.605469 4.050781 57.613281 5.699219 56.84375 7.042969 L 32.710938 49.277344 C 31.949219 50.609375 30.535156 51.429688 29 51.429688 C 27.464844 51.429688 26.046875 50.609375 25.289062 49.277344 Z M 25.289062 49.277344 " clip-rule="nonzero"/></clipPath><clipPath id="48afe37e87"><rect x="0" width="58" y="0" height="52"/></clipPath></defs><g clip-path="url(#f834baf4ed)"><g clip-path="url(#bb71f64854)"><g transform="matrix(1, 0, 0, 1, 0, 84)"><g clip-path="url(#7db92382e5)"><g clip-path="url(#527a725aea)"><g clip-path="url(#4e6b9af46b)"><path fill="#fcb101" d="M 0.179688 0.21875 L 143.707031 0.21875 L 143.707031 114.679688 L 0.179688 114.679688 Z M 0.179688 0.21875 " fill-opacity="1" fill-rule="nonzero"/></g></g></g></g></g></g><g clip-path="url(#62947a6a4e)"><g clip-path="url(#1541617867)"><path stroke-linecap="butt" transform="matrix(0.748125, 0, 0, 0.748125, 19.572803, 0.000000000000063789)" fill="none" stroke-linejoin="miter" d="M 46.74375 4.046575 C 53.907493 1.602966 62.09985 -0.000000000000085265 70.114679 -0.000000000000085265 C 78.13473 -0.000000000000085265 85.846718 1.373225 92.958248 3.816834 C 93.109668 3.895155 93.261088 3.895155 93.412508 3.968254 C 120.114682 13.742691 139.778426 39.557229 140.154366 69.715961 L 140.154366 172.498967 L 0.00189209 172.498967 L 0.00189209 69.794282 C 0.377832 39.400587 19.743957 13.591271 46.74375 4.046575 Z M 46.74375 4.046575 " stroke="#fcb101" stroke-width="42" stroke-opacity="1" stroke-miterlimit="4"/></g></g><g clip-path="url(#a9c835db4b)"><g clip-path="url(#9b35ff9008)"><g transform="matrix(1, 0, 0, 1, 43, 117)"><g clip-path="url(#48afe37e87)"><g clip-path="url(#fcbc81bf55)"><g clip-path="url(#9dd5a8c3e0)"><path fill="#040506" d="M 60.554688 55.773438 L -2.648438 55.773438 L -2.648438 0.550781 L 60.554688 0.550781 Z M 60.554688 55.773438 " fill-opacity="1" fill-rule="nonzero"/></g></g></g></g></g></g></svg>
