<svg xmlns="http://www.w3.org/2000/svg" xmlns:xlink="http://www.w3.org/1999/xlink" width="2168" zoomAndPan="magnify" viewBox="0 0 1626 387.749991" height="517" preserveAspectRatio="xMidYMid meet" version="1.0"><defs><g/><clipPath id="ab28565a6f"><path d="M 659 184 L 829 184 L 829 387.5 L 659 387.5 Z M 659 184 " clip-rule="nonzero"/></clipPath><clipPath id="3d416aaf2e"><path d="M 796 185 L 967 185 L 967 387.5 L 796 387.5 Z M 796 185 " clip-rule="nonzero"/></clipPath><clipPath id="d99c636225"><path d="M 809.230469 378.59375 L 816.1875 378.59375 L 816.1875 387.097656 L 809.230469 387.097656 Z M 809.230469 378.59375 " clip-rule="nonzero"/></clipPath><clipPath id="d5e837ffca"><path d="M 812.707031 387.078125 L 816.1875 378.59375 L 809.230469 378.59375 Z M 812.707031 387.078125 " clip-rule="nonzero"/></clipPath><clipPath id="37f64aa2f0"><path d="M 0.230469 0.59375 L 7.1875 0.59375 L 7.1875 9.097656 L 0.230469 9.097656 Z M 0.230469 0.59375 " clip-rule="nonzero"/></clipPath><clipPath id="a107677c54"><path d="M 3.707031 9.078125 L 7.1875 0.59375 L 0.230469 0.59375 Z M 3.707031 9.078125 " clip-rule="nonzero"/></clipPath><clipPath id="102e0df3ec"><rect x="0" width="8" y="0" height="10"/></clipPath><clipPath id="d97c3d643b"><path d="M 796 186 L 1023 186 L 1023 387.5 L 796 387.5 Z M 796 186 " clip-rule="nonzero"/></clipPath><clipPath id="528ebacee0"><path d="M 604 185 L 829 185 L 829 387.5 L 604 387.5 Z M 604 185 " clip-rule="nonzero"/></clipPath><clipPath id="1b4dc6480c"><path d="M 944 203 L 951 203 L 951 208 L 944 208 Z M 944 203 " clip-rule="nonzero"/></clipPath><clipPath id="57c67541c2"><path d="M 946.367188 202.113281 L 950.449219 203.273438 L 949 208.375 L 944.917969 207.21875 Z M 946.367188 202.113281 " clip-rule="nonzero"/></clipPath><clipPath id="9bd7553544"><path d="M 944.921875 207.203125 C 945.304688 205.863281 946.109375 204.675781 947.140625 203.945312 C 948.167969 203.210938 949.375 202.96875 950.449219 203.273438 L 949.714844 205.867188 C 949.1875 205.71875 948.597656 205.839844 948.09375 206.199219 C 947.585938 206.554688 947.191406 207.136719 947.007812 207.792969 Z M 944.921875 207.203125 " clip-rule="nonzero"/></clipPath><clipPath id="3521c64a5d"><path d="M 0.796875 0 L 6.550781 0 L 6.550781 4.945312 L 0.796875 4.945312 Z M 0.796875 0 " clip-rule="nonzero"/></clipPath><clipPath id="4349515f76"><path d="M 2.367188 -0.886719 L 6.449219 0.273438 L 5 5.375 L 0.917969 4.21875 Z M 2.367188 -0.886719 " clip-rule="nonzero"/></clipPath><clipPath id="6b2121aa13"><path d="M 0.921875 4.203125 C 1.304688 2.863281 2.109375 1.675781 3.140625 0.945312 C 4.167969 0.210938 5.375 -0.03125 6.449219 0.273438 L 5.714844 2.867188 C 5.1875 2.71875 4.597656 2.839844 4.09375 3.199219 C 3.585938 3.554688 3.191406 4.136719 3.007812 4.792969 Z M 0.921875 4.203125 " clip-rule="nonzero"/></clipPath><clipPath id="5be9b26645"><rect x="0" width="7" y="0" height="5"/></clipPath><clipPath id="3e478fbaf8"><path d="M 673 201 L 681 201 L 681 207 L 673 207 Z M 673 201 " clip-rule="nonzero"/></clipPath><clipPath id="1d9427741b"><path d="M 678.527344 199.695312 L 680.667969 205.578125 L 676.09375 207.242188 L 673.953125 201.359375 Z M 678.527344 199.695312 " clip-rule="nonzero"/></clipPath><clipPath id="c6f2f703b1"><path d="M 673.953125 201.359375 C 675.160156 200.921875 676.566406 201.121094 677.816406 201.90625 C 679.066406 202.6875 680.101562 204.023438 680.667969 205.570312 L 678.332031 206.421875 C 678.054688 205.664062 677.546875 205.007812 676.933594 204.625 C 676.324219 204.242188 675.632812 204.144531 675.042969 204.359375 Z M 673.953125 201.359375 " clip-rule="nonzero"/></clipPath><clipPath id="698181c154"><path d="M 0.769531 0 L 7.726562 0 L 7.726562 5.507812 L 0.769531 5.507812 Z M 0.769531 0 " clip-rule="nonzero"/></clipPath><clipPath id="459dc9bef7"><path d="M 5.527344 -1.304688 L 7.667969 4.578125 L 3.09375 6.242188 L 0.953125 0.359375 Z M 5.527344 -1.304688 " clip-rule="nonzero"/></clipPath><clipPath id="2125aee46a"><path d="M 0.953125 0.359375 C 2.160156 -0.078125 3.566406 0.121094 4.816406 0.90625 C 6.066406 1.6875 7.101562 3.023438 7.667969 4.570312 L 5.332031 5.421875 C 5.054688 4.664062 4.546875 4.007812 3.933594 3.625 C 3.324219 3.242188 2.632812 3.144531 2.042969 3.359375 Z M 0.953125 0.359375 " clip-rule="nonzero"/></clipPath><clipPath id="3b282ed96a"><rect x="0" width="8" y="0" height="6"/></clipPath></defs><path stroke-linecap="butt" transform="matrix(0.527004, 0, 0, 0.527004, 677.729542, 0)" fill="none" stroke-linejoin="miter" d="M 426.002202 256.002007 C 426.002202 258.781576 425.92808 261.561145 425.794661 264.340713 C 425.661242 267.120282 425.453701 269.892439 425.17945 272.664596 C 424.905199 275.429341 424.571651 278.194085 424.156568 280.944005 C 423.748898 283.693926 423.274518 286.436434 422.733429 289.164117 C 422.19234 291.891801 421.584541 294.60466 420.90262 297.310107 C 420.228111 300.008142 419.486893 302.683941 418.678964 305.344915 C 417.871036 308.013301 416.996399 310.652038 416.062464 313.268539 C 415.128528 315.892452 414.120471 318.486717 413.060529 321.058744 C 411.993175 323.62336 410.866523 326.165739 409.680573 328.685882 C 408.487212 331.198612 407.234553 333.681694 405.930008 336.135126 C 404.618052 338.588559 403.246798 341.012343 401.816246 343.399067 C 400.385695 345.78579 398.895846 348.135452 397.346699 350.448054 C 395.804965 352.760655 394.203933 355.036195 392.543604 357.267263 C 390.890687 359.505742 389.178473 361.699749 387.414373 363.849282 C 385.650273 365.998815 383.826876 368.103876 381.959006 370.164463 C 380.091135 372.22505 378.178792 374.241164 376.207151 376.205392 C 374.242922 378.177033 372.226808 380.096789 370.166221 381.964659 C 368.105634 383.83253 366.000574 385.648515 363.843628 387.412615 C 361.694095 389.176714 359.500088 390.888929 357.269021 392.541846 C 355.030542 394.202175 352.762413 395.803207 350.449812 397.352353 C 348.137211 398.894087 345.780136 400.383936 343.400825 401.814488 C 341.014102 403.245039 338.590318 404.616293 336.136885 405.92825 C 333.683452 407.240206 331.20037 408.485453 328.68764 409.678815 C 326.167498 410.864764 323.625118 411.991416 321.053091 413.058771 C 318.488475 414.126125 315.894211 415.12677 313.270298 416.060705 C 310.653797 417.002053 308.007647 417.869278 305.346673 418.677206 C 302.685699 419.485134 300.002488 420.226353 297.304454 420.908273 C 294.606419 421.582782 291.893559 422.190581 289.165876 422.731671 C 286.438192 423.27276 283.695684 423.754552 280.945764 424.162222 C 278.188431 424.569892 275.431099 424.910853 272.666354 425.185104 C 269.894198 425.451942 267.122041 425.659483 264.342472 425.792903 C 261.562903 425.933734 258.783334 426.000444 255.996353 426.000444 C 253.216784 426.000444 250.437215 425.933734 247.657646 425.792903 C 244.878077 425.659483 242.10592 425.451942 239.333763 425.177691 C 236.569019 424.910853 233.804274 424.569892 231.054354 424.162222 C 228.304434 423.754552 225.561926 423.27276 222.834242 422.731671 C 220.106559 422.190581 217.393699 421.582782 214.695664 420.908273 C 211.997629 420.226353 209.314419 419.485134 206.653445 418.677206 C 203.992471 417.869278 201.346321 417.002053 198.72982 416.060705 C 196.105907 415.12677 193.511643 414.126125 190.947027 413.058771 C 188.374999 411.991416 185.83262 410.864764 183.312478 409.678815 C 180.799747 408.485453 178.316666 407.240206 175.863233 405.92825 C 173.4098 404.616293 170.986016 403.245039 168.599293 401.814488 C 166.21257 400.383936 163.862907 398.894087 161.550306 397.352353 C 159.237705 395.803207 156.962164 394.202175 154.731097 392.541846 C 152.500029 390.888929 150.306023 389.176714 148.15649 387.412615 C 145.999544 385.648515 143.894484 383.83253 141.833897 381.964659 C 139.77331 380.096789 137.757196 378.177033 135.792967 376.205392 C 133.821326 374.241164 131.908983 372.22505 130.041112 370.164463 C 128.173242 368.103876 126.349845 365.998815 124.585745 363.849282 C 122.821645 361.699749 121.109431 359.505742 119.456514 357.267263 C 117.796184 355.036195 116.195153 352.760655 114.653419 350.448054 C 113.104272 348.135452 111.614423 345.78579 110.183872 343.399067 C 108.75332 341.012343 107.382066 338.588559 106.07011 336.135126 C 104.765565 333.681694 103.512906 331.198612 102.319545 328.685882 C 101.133595 326.165739 100.006943 323.62336 98.939589 321.058744 C 97.872234 318.486717 96.871589 315.892452 95.937654 313.268539 C 95.003719 310.652038 94.129081 308.013301 93.321153 305.344915 C 92.513225 302.683941 91.772007 300.008142 91.097498 297.310107 C 90.415577 294.60466 89.807778 291.891801 89.266689 289.164117 C 88.725599 286.436434 88.25122 283.693926 87.843549 280.944005 C 87.428467 278.194085 87.094919 275.429341 86.820668 272.664596 C 86.546417 269.892439 86.338876 267.120282 86.205457 264.340713 C 86.064625 261.561145 85.997916 258.781576 85.997916 256.002007 C 85.997916 253.215025 86.064625 250.435457 86.205457 247.655888 C 86.338876 244.876319 86.546417 242.104162 86.820668 239.339417 C 87.094919 236.567261 87.428467 233.809928 87.843549 231.052596 C 88.25122 228.302675 88.725599 225.560167 89.266689 222.832484 C 89.807778 220.1048 90.415577 217.391941 91.097498 214.693906 C 91.772007 211.995871 92.513225 209.31266 93.321153 206.651686 C 94.129081 203.990712 95.003719 201.351975 95.937654 198.728062 C 96.871589 196.111561 97.872234 193.517297 98.939589 190.945269 C 100.006943 188.373241 101.133595 185.830862 102.319545 183.318132 C 103.512906 180.797989 104.765565 178.314907 106.07011 175.861475 C 107.382066 173.408042 108.75332 170.99167 110.183872 168.604947 C 111.614423 166.218223 113.104272 163.868561 114.653419 161.55596 C 116.195153 159.243358 117.796184 156.967818 119.456514 154.729338 C 121.109431 152.498271 122.821645 150.304265 124.585745 148.154731 C 126.349845 146.005198 128.173242 143.892726 130.041112 141.832138 C 131.908983 139.771551 133.821326 137.755437 135.792967 135.791209 C 137.757196 133.82698 139.77331 131.907224 141.833897 130.039354 C 143.894484 128.171484 145.999544 126.355498 148.15649 124.591399 C 150.306023 122.819887 152.500029 121.115084 154.731097 119.454755 C 156.962164 117.794426 159.237705 116.193394 161.550306 114.65166 C 163.862907 113.102514 166.21257 111.620077 168.599293 110.189525 C 170.986016 108.758974 173.4098 107.38772 175.863233 106.075763 C 178.316666 104.763807 180.799747 103.511148 183.312478 102.325198 C 185.83262 101.131837 188.374999 100.005185 190.947027 98.93783 C 193.511643 97.877888 196.105907 96.877243 198.72982 95.935896 C 201.346321 95.001961 203.992471 94.127323 206.653445 93.319395 C 209.314419 92.511467 211.997629 91.770249 214.695664 91.09574 C 217.393699 90.421231 220.106559 89.80602 222.834242 89.26493 C 225.561926 88.723841 228.304434 88.249461 231.054354 87.841791 C 233.804274 87.434121 236.569019 87.093161 239.333763 86.81891 C 242.10592 86.544659 244.878077 86.34453 247.657646 86.203698 C 250.437215 86.070279 253.216784 86.003569 255.996353 86.003569 C 258.783334 86.003569 261.562903 86.070279 264.342472 86.203698 C 267.122041 86.34453 269.894198 86.544659 272.666354 86.81891 C 275.431099 87.093161 278.188431 87.434121 280.945764 87.841791 C 283.695684 88.249461 286.438192 88.723841 289.165876 89.26493 C 291.893559 89.80602 294.606419 90.421231 297.304454 91.09574 C 300.002488 91.770249 302.685699 92.511467 305.346673 93.319395 C 308.007647 94.127323 310.653797 95.001961 313.270298 95.935896 C 315.894211 96.877243 318.488475 97.877888 321.053091 98.93783 C 323.625118 100.005185 326.167498 101.131837 328.68764 102.325198 C 331.20037 103.511148 333.683452 104.763807 336.136885 106.075763 C 338.590318 107.38772 341.014102 108.758974 343.400825 110.189525 C 345.780136 111.620077 348.137211 113.102514 350.449812 114.65166 C 352.762413 116.193394 355.030542 117.794426 357.269021 119.454755 C 359.500088 121.115084 361.694095 122.819887 363.843628 124.591399 C 366.000574 126.355498 368.105634 128.171484 370.166221 130.039354 C 372.226808 131.907224 374.242922 133.82698 376.207151 135.791209 C 378.178792 137.755437 380.091135 139.771551 381.959006 141.832138 C 383.826876 143.892726 385.650273 146.005198 387.414373 148.154731 C 389.178473 150.304265 390.890687 152.498271 392.543604 154.729338 C 394.203933 156.967818 395.804965 159.243358 397.346699 161.55596 C 398.895846 163.868561 400.385695 166.218223 401.816246 168.604947 C 403.246798 170.99167 404.618052 173.408042 405.930008 175.861475 C 407.234553 178.314907 408.487212 180.797989 409.680573 183.318132 C 410.866523 185.830862 411.993175 188.373241 413.060529 190.945269 C 414.127884 193.517297 415.128528 196.111561 416.062464 198.728062 C 416.996399 201.351975 417.871036 203.990712 418.678964 206.651686 C 419.486893 209.31266 420.228111 211.995871 420.90262 214.693906 C 421.584541 217.391941 422.19234 220.1048 422.733429 222.832484 C 423.274518 225.560167 423.748898 228.302675 424.156568 231.052596 C 424.571651 233.809928 424.905199 236.567261 425.17945 239.339417 C 425.453701 242.104162 425.661242 244.876319 425.794661 247.655888 C 425.92808 250.435457 426.002202 253.215025 426.002202 256.002007 Z M 426.002202 256.002007 " stroke="#fcb101" stroke-width="12" stroke-opacity="1" stroke-miterlimit="4"/><path stroke-linecap="butt" transform="matrix(0.527004, 0, 0, 0.527004, 677.729542, 0)" fill="none" stroke-linejoin="round" d="M 255.996353 86.003569 L 403.002196 340.997519 L 108.997922 340.997519 Z M 255.996353 86.003569 " stroke="#fcb101" stroke-width="12" stroke-opacity="1" stroke-miterlimit="4"/><g fill="#fcb101" fill-opacity="1"><g transform="translate(45.069501, 172.080223)"><g><path d="M 78.140625 0 L 61.03125 0 L 54.234375 -17.6875 L 23.109375 -17.6875 L 16.6875 0 L 0 0 L 30.328125 -77.875 L 46.96875 -77.875 Z M 49.1875 -30.8125 L 38.46875 -59.703125 L 27.9375 -30.8125 Z M 49.1875 -30.8125 "/></g></g></g><g fill="#fcb101" fill-opacity="1"><g transform="translate(119.601741, 172.080223)"><g/></g></g><g fill="#fcb101" fill-opacity="1"><g transform="translate(149.829042, 172.080223)"><g><path d="M 8.34375 0 L 8.34375 -77.234375 L 24.0625 -77.234375 L 24.0625 -13.125 L 63.15625 -13.125 L 63.15625 0 Z M 8.34375 0 "/></g></g></g><g fill="#fcb101" fill-opacity="1"><g transform="translate(214.320988, 172.080223)"><g/></g></g><g fill="#fcb101" fill-opacity="1"><g transform="translate(240.510784, 172.080223)"><g><path d="M 78.140625 0 L 61.03125 0 L 54.234375 -17.6875 L 23.109375 -17.6875 L 16.6875 0 L 0 0 L 30.328125 -77.875 L 46.96875 -77.875 Z M 49.1875 -30.8125 L 38.46875 -59.703125 L 27.9375 -30.8125 Z M 49.1875 -30.8125 "/></g></g></g><g fill="#fcb101" fill-opacity="1"><g transform="translate(315.043048, 172.080223)"><g/></g></g><g fill="#fcb101" fill-opacity="1"><g transform="translate(345.270338, 172.080223)"><g><path d="M 1.171875 0 L 1.171875 -14.1875 L 42.078125 -64.703125 L 5.796875 -64.703125 L 5.796875 -77.875 L 62.796875 -77.875 L 62.796875 -65.65625 L 20.140625 -13.125 L 64.4375 -13.125 L 64.4375 0 Z M 1.171875 0 "/></g></g></g><g fill="#fcb101" fill-opacity="1"><g transform="translate(411.727912, 172.080223)"><g/></g></g><g fill="#fcb101" fill-opacity="1"><g transform="translate(437.91772, 172.080223)"><g><path d="M 78.140625 0 L 61.03125 0 L 54.234375 -17.6875 L 23.109375 -17.6875 L 16.6875 0 L 0 0 L 30.328125 -77.875 L 46.96875 -77.875 Z M 49.1875 -30.8125 L 38.46875 -59.703125 L 27.9375 -30.8125 Z M 49.1875 -30.8125 "/></g></g></g><g fill="#fcb101" fill-opacity="1"><g transform="translate(512.449938, 172.080223)"><g/></g></g><g fill="#fcb101" fill-opacity="1"><g transform="translate(542.677228, 172.080223)"><g><path d="M 7.4375 0 L 7.4375 -77.875 L 23.15625 -77.875 L 23.15625 0 Z M -2.390625 -82.34375 L -2.390625 -95.140625 L 10.40625 -95.140625 L 10.40625 -82.34375 Z M 20.453125 -82.34375 L 20.453125 -95.140625 L 33.3125 -95.140625 L 33.3125 -82.34375 Z M 20.453125 -82.34375 "/></g></g></g><g fill="#fcb101" fill-opacity="1"><g transform="translate(572.904563, 172.080223)"><g/></g></g><g fill="#fcb101" fill-opacity="1"><g transform="translate(603.131853, 172.080223)"><g><path d="M 3.9375 -25.34375 L 19.234375 -26.828125 C 20.148438 -21.691406 22.015625 -17.921875 24.828125 -15.515625 C 27.648438 -13.109375 31.453125 -11.90625 36.234375 -11.90625 C 41.296875 -11.90625 45.109375 -12.972656 47.671875 -15.109375 C 50.242188 -17.253906 51.53125 -19.757812 51.53125 -22.625 C 51.53125 -24.46875 50.988281 -26.035156 49.90625 -27.328125 C 48.832031 -28.617188 46.945312 -29.742188 44.25 -30.703125 C 42.40625 -31.335938 38.207031 -32.472656 31.65625 -34.109375 C 23.226562 -36.191406 17.316406 -38.757812 13.921875 -41.8125 C 9.140625 -46.09375 6.75 -51.316406 6.75 -57.484375 C 6.75 -61.441406 7.875 -65.144531 10.125 -68.59375 C 12.375 -72.050781 15.613281 -74.679688 19.84375 -76.484375 C 24.070312 -78.296875 29.179688 -79.203125 35.171875 -79.203125 C 44.941406 -79.203125 52.296875 -77.054688 57.234375 -72.765625 C 62.179688 -68.484375 64.773438 -62.769531 65.015625 -55.625 L 49.296875 -54.921875 C 48.628906 -58.929688 47.1875 -61.8125 44.96875 -63.5625 C 42.757812 -65.3125 39.441406 -66.1875 35.015625 -66.1875 C 30.441406 -66.1875 26.863281 -65.25 24.28125 -63.375 C 22.613281 -62.164062 21.78125 -60.554688 21.78125 -58.546875 C 21.78125 -56.703125 22.5625 -55.125 24.125 -53.8125 C 26.101562 -52.144531 30.914062 -50.410156 38.5625 -48.609375 C 46.21875 -46.804688 51.875 -44.9375 55.53125 -43 C 59.195312 -41.070312 62.066406 -38.429688 64.140625 -35.078125 C 66.210938 -31.734375 67.25 -27.601562 67.25 -22.6875 C 67.25 -18.21875 66.007812 -14.035156 63.53125 -10.140625 C 61.050781 -6.242188 57.546875 -3.347656 53.015625 -1.453125 C 48.484375 0.429688 42.835938 1.375 36.078125 1.375 C 26.222656 1.375 18.65625 -0.894531 13.375 -5.4375 C 8.101562 -9.988281 4.957031 -16.625 3.9375 -25.34375 Z M 3.9375 -25.34375 "/></g></g></g><path stroke-linecap="round" transform="matrix(0.749515, 0.00178134, -0.00178134, 0.749515, 47.005092, 197.551655)" fill="none" stroke-linejoin="miter" d="M 3.498575 3.497998 L 838.017857 3.500289 " stroke="#fcb101" stroke-width="7" stroke-opacity="1" stroke-miterlimit="4"/><path stroke-linecap="round" transform="matrix(0.749517, 0.000000000000000049, -0.000000000000000049, 0.749517, 947.68783, 200.549722)" fill="none" stroke-linejoin="miter" d="M 3.501817 3.498459 L 857.963887 3.498459 " stroke="#fcb101" stroke-width="7" stroke-opacity="1" stroke-miterlimit="4"/><g clip-path="url(#ab28565a6f)"><path stroke-linecap="round" transform="matrix(0.453594, 0.596681, -0.596681, 0.453594, 676.56387, 199.270552)" fill="none" stroke-linejoin="miter" d="M 1.999708 2.000368 L 300.775622 1.999441 " stroke="#fcb101" stroke-width="4" stroke-opacity="1" stroke-miterlimit="4"/></g><g clip-path="url(#3d416aaf2e)"><path stroke-linecap="round" transform="matrix(-0.455687, 0.595084, -0.595084, -0.455687, 951.315371, 202.288394)" fill="none" stroke-linejoin="miter" d="M 1.998348 1.999561 L 299.573759 2.000312 " stroke="#fcb101" stroke-width="4" stroke-opacity="1" stroke-miterlimit="4"/></g><g clip-path="url(#d99c636225)"><g clip-path="url(#d5e837ffca)"><g transform="matrix(1, 0, 0, 1, 809, 378)"><g clip-path="url(#102e0df3ec)"><g clip-path="url(#37f64aa2f0)"><g clip-path="url(#a107677c54)"><path fill="#fcb101" d="M 0.230469 0.59375 L 7.1875 0.59375 L 7.1875 9.070312 L 0.230469 9.070312 Z M 0.230469 0.59375 " fill-opacity="1" fill-rule="nonzero"/></g></g></g></g></g></g><g clip-path="url(#d97c3d643b)"><path stroke-linecap="round" transform="matrix(-0.551046, 0.508059, -0.508059, -0.551046, 1007.563014, 203.217502)" fill="none" stroke-linejoin="miter" d="M 2.000663 1.998281 L 349.773898 2.00148 " stroke="#fcb101" stroke-width="4" stroke-opacity="1" stroke-miterlimit="4"/></g><g clip-path="url(#528ebacee0)"><path stroke-linecap="round" transform="matrix(0.548164, 0.511166, -0.511166, 0.548164, 620.958317, 199.980909)" fill="none" stroke-linejoin="miter" d="M 1.997221 1.999099 L 349.666469 2.002565 " stroke="#fcb101" stroke-width="4" stroke-opacity="1" stroke-miterlimit="4"/></g><g clip-path="url(#1b4dc6480c)"><g clip-path="url(#57c67541c2)"><g clip-path="url(#9bd7553544)"><g transform="matrix(1, 0, 0, 1, 944, 203)"><g clip-path="url(#5be9b26645)"><g clip-path="url(#3521c64a5d)"><g clip-path="url(#4349515f76)"><g clip-path="url(#6b2121aa13)"><path fill="#fcb101" d="M 2.367188 -0.886719 L 6.449219 0.273438 L 5.007812 5.359375 L 0.921875 4.203125 Z M 2.367188 -0.886719 " fill-opacity="1" fill-rule="nonzero"/></g></g></g></g></g></g></g></g><g fill="#fcb101" fill-opacity="1"><g transform="translate(959.70352, 172.080223)"><g><path d="M 78.140625 0 L 61.03125 0 L 54.234375 -17.6875 L 23.109375 -17.6875 L 16.6875 0 L 0 0 L 30.328125 -77.875 L 46.96875 -77.875 Z M 49.1875 -30.8125 L 38.46875 -59.703125 L 27.9375 -30.8125 Z M 49.1875 -30.8125 "/></g></g></g><g fill="#fcb101" fill-opacity="1"><g transform="translate(1034.23576, 172.080223)"><g/></g></g><g fill="#fcb101" fill-opacity="1"><g transform="translate(1064.463061, 172.080223)"><g><path d="M 44.140625 -28.640625 L 44.140625 -41.75 L 78.03125 -41.75 L 78.03125 -10.734375 C 74.738281 -7.546875 69.96875 -4.738281 63.71875 -2.3125 C 57.46875 0.113281 51.140625 1.328125 44.734375 1.328125 C 36.585938 1.328125 29.484375 -0.378906 23.421875 -3.796875 C 17.367188 -7.210938 12.816406 -12.097656 9.765625 -18.453125 C 6.722656 -24.816406 5.203125 -31.734375 5.203125 -39.203125 C 5.203125 -47.316406 6.898438 -54.523438 10.296875 -60.828125 C 13.703125 -67.128906 18.679688 -71.960938 25.234375 -75.328125 C 30.222656 -77.910156 36.4375 -79.203125 43.875 -79.203125 C 53.539062 -79.203125 61.09375 -77.175781 66.53125 -73.125 C 71.96875 -69.070312 75.46875 -63.46875 77.03125 -56.3125 L 61.40625 -53.390625 C 60.3125 -57.210938 58.25 -60.226562 55.21875 -62.4375 C 52.195312 -64.65625 48.414062 -65.765625 43.875 -65.765625 C 37.007812 -65.765625 31.546875 -63.585938 27.484375 -59.234375 C 23.429688 -54.878906 21.40625 -48.414062 21.40625 -39.84375 C 21.40625 -30.601562 23.457031 -23.671875 27.5625 -19.046875 C 31.675781 -14.421875 37.0625 -12.109375 43.71875 -12.109375 C 47.007812 -12.109375 50.3125 -12.753906 53.625 -14.046875 C 56.9375 -15.335938 59.78125 -16.90625 62.15625 -18.75 L 62.15625 -28.640625 Z M 44.140625 -28.640625 "/></g></g></g><g fill="#fcb101" fill-opacity="1"><g transform="translate(1149.088879, 172.080223)"><g/></g></g><g fill="#fcb101" fill-opacity="1"><g transform="translate(1179.316168, 172.080223)"><g><path d="M 7.921875 0 L 7.921875 -77.875 L 65.65625 -77.875 L 65.65625 -64.703125 L 23.640625 -64.703125 L 23.640625 -47.4375 L 62.734375 -47.4375 L 62.734375 -34.3125 L 23.640625 -34.3125 L 23.640625 -13.125 L 67.140625 -13.125 L 67.140625 0 Z M 7.921875 0 "/></g></g></g><g fill="#fcb101" fill-opacity="1"><g transform="translate(1251.882963, 172.080223)"><g/></g></g><g fill="#fcb101" fill-opacity="1"><g transform="translate(1282.110253, 172.080223)"><g><path d="M 8.078125 0 L 8.078125 -77.875 L 23.375 -77.875 L 55.25 -25.875 L 55.25 -77.875 L 69.859375 -77.875 L 69.859375 0 L 54.078125 0 L 22.6875 -50.78125 L 22.6875 0 Z M 8.078125 0 "/></g></g></g><g fill="#fcb101" fill-opacity="1"><g transform="translate(1360.679997, 172.080223)"><g/></g></g><g fill="#fcb101" fill-opacity="1"><g transform="translate(1390.907287, 172.080223)"><g><path d="M 57.75 -28.640625 L 72.984375 -23.796875 C 70.648438 -15.296875 66.765625 -8.984375 61.328125 -4.859375 C 55.890625 -0.734375 48.992188 1.328125 40.640625 1.328125 C 30.296875 1.328125 21.796875 -2.203125 15.140625 -9.265625 C 8.484375 -16.335938 5.15625 -26 5.15625 -38.25 C 5.15625 -51.207031 8.5 -61.269531 15.1875 -68.4375 C 21.882812 -75.613281 30.6875 -79.203125 41.59375 -79.203125 C 51.125 -79.203125 58.863281 -76.390625 64.8125 -70.765625 C 68.351562 -67.429688 71.007812 -62.648438 72.78125 -56.421875 L 57.21875 -52.703125 C 56.289062 -56.734375 54.363281 -59.914062 51.4375 -62.25 C 48.519531 -64.59375 44.972656 -65.765625 40.796875 -65.765625 C 35.023438 -65.765625 30.34375 -63.691406 26.75 -59.546875 C 23.15625 -55.410156 21.359375 -48.703125 21.359375 -39.421875 C 21.359375 -29.578125 23.128906 -22.5625 26.671875 -18.375 C 30.210938 -14.195312 34.816406 -12.109375 40.484375 -12.109375 C 44.660156 -12.109375 48.253906 -13.4375 51.265625 -16.09375 C 54.273438 -18.75 56.4375 -22.929688 57.75 -28.640625 Z M 57.75 -28.640625 "/></g></g></g><g fill="#fcb101" fill-opacity="1"><g transform="translate(1469.477031, 172.080223)"><g/></g></g><g fill="#fcb101" fill-opacity="1"><g transform="translate(1497.738714, 172.080223)"><g><path d="M 28.375 0 L 28.375 -32.78125 L -0.15625 -77.875 L 18.28125 -77.875 L 36.609375 -47.0625 L 54.5625 -77.875 L 72.671875 -77.875 L 44.046875 -32.671875 L 44.046875 0 Z M 28.375 0 "/></g></g></g><g clip-path="url(#3e478fbaf8)"><g clip-path="url(#1d9427741b)"><g clip-path="url(#c6f2f703b1)"><g transform="matrix(1, 0, 0, 1, 673, 201)"><g clip-path="url(#3b282ed96a)"><g clip-path="url(#698181c154)"><g clip-path="url(#459dc9bef7)"><g clip-path="url(#2125aee46a)"><path fill="#fcb101" d="M 5.527344 -1.304688 L 7.667969 4.578125 L 3.09375 6.242188 L 0.953125 0.359375 Z M 5.527344 -1.304688 " fill-opacity="1" fill-rule="nonzero"/></g></g></g></g></g></g></g></g></svg>
