<svg
  xmlns="http://www.w3.org/2000/svg"
  xmlns:xlink="http://www.w3.org/1999/xlink"
  width="308"
  zoomAndPan="magnify"
  viewBox="0 0 230.87999 201.75"
  height="269"
  preserveAspectRatio="xMidYMid meet"
  version="1.0"
>
  <defs>
    <clipPath id="6c29c44492">
      <path
        d="M 0.0820312 0 L 230.675781 0 L 230.675781 201.5 L 0.0820312 201.5 Z M 0.0820312 0 "
        clip-rule="nonzero"
      />
    </clipPath>

    <clipPath id="90af86d8e4">
      <path
        d="M 9 13 L 221 13 L 221 201.5 L 9 201.5 Z M 9 13 "
        clip-rule="nonzero"
      />
    </clipPath>

    <clipPath id="569c1b35e0">
      <path
        d="M 126.371094 19.511719 L 219.214844 181.988281 C 221.519531 186.023438 221.503906 190.980469 219.171875 195.003906 C 216.839844 199.023438 212.539062 201.5 207.890625 201.5 L 22.554688 201.5 C 17.90625 201.5 13.609375 199.023438 11.277344 195.003906 C 8.941406 190.980469 8.925781 186.023438 11.230469 181.988281 L 104.074219 19.511719 C 106.359375 15.511719 110.617188 13.042969 115.222656 13.042969 C 119.832031 13.042969 124.085938 15.511719 126.371094 19.511719 Z M 126.371094 19.511719 "
        clip-rule="nonzero"
      />
    </clipPath>

    <clipPath id="26710afffa">
      <path
        d="M 108.710938 48.203125 L 121.742188 48.203125 L 121.742188 147.34375 L 108.710938 147.34375 Z M 108.710938 48.203125 "
        clip-rule="nonzero"
      />
    </clipPath>

    <clipPath id="75a70a2662">
      <path
        d="M 115.226562 48.203125 C 116.953125 48.203125 118.609375 48.890625 119.832031 50.113281 C 121.054688 51.332031 121.742188 52.992188 121.742188 54.71875 L 121.742188 140.789062 C 121.742188 142.515625 121.054688 144.175781 119.832031 145.394531 C 118.609375 146.617188 116.953125 147.304688 115.226562 147.304688 C 113.5 147.304688 111.839844 146.617188 110.621094 145.394531 C 109.398438 144.175781 108.710938 142.515625 108.710938 140.789062 L 108.710938 54.71875 C 108.710938 52.992188 109.398438 51.332031 110.621094 50.113281 C 111.839844 48.890625 113.5 48.203125 115.226562 48.203125 Z M 115.226562 48.203125 "
        clip-rule="nonzero"
      />
    </clipPath>

    <clipPath id="3794e5d302">
      <path
        d="M 0.710938 0.203125 L 13.742188 0.203125 L 13.742188 99.34375 L 0.710938 99.34375 Z M 0.710938 0.203125 "
        clip-rule="nonzero"
      />
    </clipPath>

    <clipPath id="cc0258de43">
      <path
        d="M 7.226562 0.203125 C 8.953125 0.203125 10.609375 0.890625 11.832031 2.113281 C 13.054688 3.332031 13.742188 4.992188 13.742188 6.71875 L 13.742188 92.789062 C 13.742188 94.515625 13.054688 96.175781 11.832031 97.394531 C 10.609375 98.617188 8.953125 99.304688 7.226562 99.304688 C 5.5 99.304688 3.839844 98.617188 2.621094 97.394531 C 1.398438 96.175781 0.710938 94.515625 0.710938 92.789062 L 0.710938 6.71875 C 0.710938 4.992188 1.398438 3.332031 2.621094 2.113281 C 3.839844 0.890625 5.5 0.203125 7.226562 0.203125 Z M 7.226562 0.203125 "
        clip-rule="nonzero"
      />
    </clipPath>

    <clipPath id="2f3e3c9aeb">
      <rect x="0" width="14" y="0" height="100" />
    </clipPath>

    <clipPath id="a47a1a965b">
      <path
        d="M 102 154.039062 L 128.410156 154.039062 L 128.410156 178.175781 L 102 178.175781 Z M 102 154.039062 "
        clip-rule="nonzero"
      />
    </clipPath>

    <clipPath id="4604196f91">
      <path
        d="M 118.570312 156.066406 L 127.859375 172.324219 C 128.550781 173.535156 128.546875 175.023438 127.847656 176.230469 C 127.148438 177.433594 125.859375 178.175781 124.464844 178.175781 L 105.988281 178.175781 C 104.59375 178.175781 103.304688 177.433594 102.605469 176.230469 C 101.90625 175.023438 101.898438 173.535156 102.59375 172.324219 L 111.882812 156.066406 C 112.566406 154.867188 113.84375 154.128906 115.226562 154.128906 C 116.609375 154.128906 117.886719 154.867188 118.570312 156.066406 Z M 118.570312 156.066406 "
        clip-rule="nonzero"
      />
    </clipPath>

    <clipPath id="f424e7538a">
      <path
        d="M 0 0.0390625 L 26.410156 0.0390625 L 26.410156 24.175781 L 0 24.175781 Z M 0 0.0390625 "
        clip-rule="nonzero"
      />
    </clipPath>

    <clipPath id="731ebf5b51">
      <path
        d="M 16.570312 2.066406 L 25.859375 18.324219 C 26.550781 19.535156 26.546875 21.023438 25.847656 22.230469 C 25.148438 23.433594 23.859375 24.175781 22.464844 24.175781 L 3.988281 24.175781 C 2.59375 24.175781 1.304688 23.433594 0.605469 22.230469 C -0.09375 21.023438 -0.101562 19.535156 0.59375 18.324219 L 9.882812 2.066406 C 10.566406 0.867188 11.84375 0.128906 13.226562 0.128906 C 14.609375 0.128906 15.886719 0.867188 16.570312 2.066406 Z M 16.570312 2.066406 "
        clip-rule="nonzero"
      />
    </clipPath>

    <clipPath id="0763367557">
      <rect x="0" width="27" y="0" height="25" />
    </clipPath>
  </defs>

  <g clip-path="url(#6c29c44492)">
    <!-- fond blanc retiré -->
    <!--
    <path
      fill="#ffffff"
      d="M 0.0820312 0 L 230.796875 0 L 230.796875 201.5 L 0.0820312 201.5 Z M 0.0820312 0 "
      fill-opacity="1"
      fill-rule="nonzero"
    />
    -->
  </g>

  <g clip-path="url(#90af86d8e4)">
    <g clip-path="url(#569c1b35e0)">
      <path
        stroke-linecap="butt"
        transform="matrix(0.749072, 0, 0, 0.749072, 0.0829403, 0.00000998762)"
        fill="none"
        stroke-linejoin="miter"
        d="M 168.592866 26.04785 L 292.537935 242.951721 C 295.614659 248.338596 295.5938 254.956161 292.480572 260.327393 C 289.367344 265.693409 283.625863 268.999584 277.420266 268.999584 L 29.999459 268.999584 C 23.793862 268.999584 18.057596 265.693409 14.944367 260.327393 C 11.825924 254.956161 11.805065 248.338596 14.88179 242.951721 L 138.826859 26.04785 C 141.87751 20.707908 147.561628 17.412162 153.709862 17.412162 C 159.863312 17.412162 165.542215 20.707908 168.592866 26.04785 Z M 168.592866 26.04785 "
        stroke="#ff0000"
        stroke-width="42"
        stroke-opacity="1"
        stroke-miterlimit="4"
      />
    </g>
  </g>

  <g clip-path="url(#26710afffa)">
    <g clip-path="url(#75a70a2662)">
      <g transform="matrix(1, 0, 0, 1, 108, 48)">
        <g clip-path="url(#2f3e3c9aeb)">
          <g clip-path="url(#3794e5d302)">
            <g clip-path="url(#cc0258de43)">
              <path
                fill="#ff0000"
                d="M 0.710938 0.203125 L 13.742188 0.203125 L 13.742188 99.292969 L 0.710938 99.292969 Z M 0.710938 0.203125 "
                fill-opacity="1"
                fill-rule="nonzero"
              />
            </g>
          </g>
        </g>
      </g>
    </g>
  </g>

  <g clip-path="url(#a47a1a965b)">
    <g clip-path="url(#4604196f91)">
      <g transform="matrix(1, 0, 0, 1, 102, 154)">
        <g clip-path="url(#0763367557)">
          <g clip-path="url(#f424e7538a)">
            <g clip-path="url(#731ebf5b51)">
              <path
                fill="#ff0000"
                d="M -2.753906 -3.785156 L 29.25 -3.785156 L 29.25 24.175781 L -2.753906 24.175781 Z M -2.753906 -3.785156 "
                fill-opacity="1"
                fill-rule="nonzero"
              />
            </g>
          </g>
        </g>
      </g>
    </g>
  </g>
</svg>
